# xmcd
#
# Track frame offsets:
#	150
#	21887
#	45600
#	65670
#	89520
#	107370
#	126129
#	145095
#	160095
#	177795
#	198870
#
# Disc length: 2920 seconds
#
# Revision: 1
# Processed by: cddbd v1.4PL0 Copyright (c) Steve Scherf et al.
# Submitted via: audiograbber 1.81.01
#
DISCID=8c0b660b
DTITLE=Jill Knight - Imaginary Line
DYEAR=2001
DGENRE=Blues
TTITLE0=Built To Last
TTITLE1=Searchlight
TTITLE2=Joseph
TTITLE3=Circus Life
TTITLE4=Imaginary Line
TTITLE5=Thin Pane
TTITLE6=Onion Skin
TTITLE7=Forget About Me
TTITLE8=If You Should Fall
TTITLE9=I've Got Mine
TTITLE10=Carolina
EXTD=
EXTT0=
EXTT1=
EXTT2=
EXTT3=
EXTT4=
EXTT5=
EXTT6=
EXTT7=
EXTT8=
EXTT9=
EXTT10=
PLAYORDER=
